<?xml version="1.0" encoding="UTF-8"?>
<svg width="225px" height="453px" viewBox="0 0 225 453" version="1.1" xmlns="http://www.w3.org/2000/svg" xmlns:xlink="http://www.w3.org/1999/xlink">
    <!-- Generator: Sketch 46.1 (44463) - http://www.bohemiancoding.com/sketch -->
    <title>Group 3</title>
    <desc>Created with Sketch.</desc>
    <defs></defs>
    <g id="Loginpage" stroke="none" stroke-width="1" fill="none" fill-rule="evenodd">
        <g id="Desktop-HD" transform="translate(-359.000000, -320.000000)">
            <g id="Group-3" transform="translate(362.000000, 322.000000)">
                <path d="M172.5,190 C181.998324,198.3232 187.831658,204.489866 190,208.5 C193.938631,215.784107 196.045522,238.626117 194.5,254.5 C193.068023,269.207682 182.792694,285.96166 178.5,293.5 C167.839716,312.220376 157.152158,324 152,324 C145.5,324 143.198059,319.005412 145,309.5 C146.772135,300.151822 156.52742,288.390253 159.054228,282.628809" id="Path-16" stroke="#000000" stroke-width="4"></path>
                <path d="M49.5,194.5 C38.4691495,196.898413 32.3958695,221.664545 31.3638348,228.144138 C29.5788209,239.351284 32.8638348,261.5 37,275.5 C39.0635246,282.484572 49.037865,297.039918 59.5,307.5 C70.0083536,318.006291 81.0143275,324.404425 87.5,325.5 C103.727657,328.241213 113.083908,322.006593 103.5,307.5 C101.685336,304.753251 88.0764416,294.49473 84.5,292.5" id="Path-20" stroke="#000000" stroke-width="4"></path>
                <path d="M32.5,252.5 C22.5,270.833333 16.8333333,290 15.5,310 C14.3854859,326.717711 15.9841942,361.152935 23,386.5 C25.55838,395.743047 30.3786548,410.130541 40,424.5 C41.961642,427.429708 54.9086161,441.974878 64.5,445.5 C68.6109691,447.010905 82.9256759,451.562342 83,443.5 C83.0663457,436.303119 72.4674911,429.920115 67,420 C61.1666393,409.416058 60.4403129,395.508635 60.5,395.5 C60.5796727,395.488473 63.6506872,389.806271 67,389 C80.0866243,385.849691 138.193858,380.58609 162.5,383.5 C164.943542,383.792941 169.525633,388.387219 173,393 C174.268478,394.684108 176.371416,397.264659 177.5,399 C179.131091,401.508009 188.090232,416.024212 197,422 C202.556555,425.726785 219.4245,426.748879 220,420 C220.453379,414.68323 205.542883,402.812235 203,395.5 C198.798517,383.418344 196.901226,361.593831 197,359 C197.626374,342.551269 201.148005,323.364565 202,315.5 C202.671589,309.300714 203.217702,299.097752 200,287 C198.941903,283.021822 196.275237,276.688489 192,268" id="Path-8" stroke="#000000" stroke-width="4"></path>
                <path d="M145.250327,318.034759 C146.732762,315.741231 148.215197,313.447703 149.697632,311.154175" id="Path-15" stroke="#000000" stroke-width="4"></path>
                <path d="M146.487383,321.257661 C148.428561,318.180453 150.36974,315.103245 152.310919,312.026038" id="Path-17" stroke="#000000" stroke-width="4"></path>
                <path d="M149.707984,323.255008 C154.425415,319.098802 152.383926,321.693346 155.364164,315.124716" id="Path-19" stroke="#000000" stroke-width="4"></path>
                <path d="M176.5,397.5 C171.727921,390.008496 168.394588,384.508496 166.5,381 C164.605412,377.491504 163.605412,373.824837 163.5,370" id="Path-22" stroke="#000000" stroke-width="4"></path>
                <path d="M91,147.519671 C92.4928991,150.453787 95.4222201,153.574617 99.3237801,155.354105 C101.837578,156.50064 104.843317,156.881394 107.833976,156.993287 C114.161986,157.230045 118.791299,153.649689 122.959033,144" id="Path-10" stroke="#000000" stroke-width="3"></path>
                <path d="M69.3436267,91.6762998 C68.1338055,86.4666497 76.4494575,89.0710858 77.4446414,92.1482407 C78.4398253,95.2253955 70.6539685,97.318805 69.3436267,91.6762998 Z" id="Path-7" fill="#000000" transform="translate(73.377947, 91.956330) scale(-1, 1) rotate(-108.000000) translate(-73.377947, -91.956330) "></path>
                <path d="M119.343627,86.6762998 C118.133806,81.4666497 126.449457,84.0710858 127.444641,87.1482407 C128.439825,90.2253955 120.653968,92.318805 119.343627,86.6762998 Z" id="Path-7" fill="#000000" transform="translate(123.377947, 86.956330) scale(-1, 1) rotate(-108.000000) translate(-123.377947, -86.956330) "></path>
                <path d="M0,26 C3.26463427,11.7594982 49.9754214,16.6945515 56.9141969,19.4590996 C58.1386867,28.4438808 57.9088717,32.7957122 51.6080745,42.2666212 C44.2260023,53.3628256 28.4080424,57.8251394 27.5,59" id="Path-18" stroke="#000000" stroke-width="5" transform="translate(28.750000, 37.669073) scale(-1, 1) translate(-28.750000, -37.669073) "></path>
                <path d="M136,16.5 C139.264634,2.25949822 188.561224,0.73545193 195.5,3.5 C196.72449,12.4847812 198.908872,23.7957122 192.608074,33.2666212 C185.226002,44.3628256 169.408042,48.8251394 168.5,50" id="Path-18" stroke="#000000" stroke-width="5"></path>
                <path d="M195,415 C199.846893,419.845484 202.407336,423.807696 209.5,425" id="Path-25" stroke="#000000" stroke-width="3"></path>
                <path d="M202.25,414 C202.729845,414.423955 205.45588,418.153417 209,420.5 C212.177039,422.603537 215.949154,424.361585 216.5,424.5" id="Path-26" stroke="#000000" stroke-width="3"></path>
                <path d="M207,412 C207.909991,412.803999 210.046996,415.346316 212.75,417 C215.261221,418.536352 217.334663,419.207176 218.5,419.5" id="Path-26" stroke="#000000" stroke-width="3"></path>
                <path d="M66,440 C67.3948798,441.833166 68.8234513,443.292449 70.2857143,444.37785 C71.7479773,445.46325 74.0694059,446.714064 77.25,448.130292" id="Path-23" stroke="#000000" stroke-width="3"></path>
                <path d="M72,438 C73.3018878,439.465578 74.6352212,440.632245 76,441.5 C77.3647788,442.367755 79.5314455,443.367755 82.5,444.5" id="Path-23" stroke="#000000" stroke-width="3"></path>
                <path d="M106.790955,115.022811 C110.364618,115.390782 108.295381,123.989371 106.599246,124.90439 C104.907444,125.817071 100.135394,119.926218 100.01508,118.678209 C99.6529455,114.9218 105.924809,114.933626 106.790955,115.022811 Z" id="Path-11" fill="#000000"></path>
                <path d="M106.366322,116.046593 C107.422458,116.469022 106.566254,118.293641 105.977137,118.568964 C105.38802,118.844287 105.094147,118.476037 104.117016,117.300239 C103.457134,116.506193 105.777127,115.810929 106.366322,116.046593 Z" id="Path-9" fill="#FFFFFF"></path>
                <path d="M41.5,190 C64.2586031,202.950046 116.234907,207.398897 154,196.5 C175.373699,190.331612 183,185.5 196.5,165 C210,144.5 201.074967,118.353923 189.5,91.5 C175.175613,58.2674229 155.991047,34.431842 144,24 C123.854823,6.47431482 99.1648471,-1.5245602 91.5,1.5 C69.0579736,10.3556574 43.7252409,39.6714094 33,59 C19.3004403,83.6887864 12.8132908,114.25691 13,128 C13.3982345,157.312816 25.8770139,181.110246 41.5,190 Z" id="Path-2" stroke="#000000" stroke-width="5"></path>
                <path d="M96.7508661,326.493128 C90.8897098,318.16601 94.5886781,321.118531 86.0360614,317.176978" id="Path-12" stroke="#000000" stroke-width="4"></path>
                <polyline id="Path-13" stroke="#000000" stroke-width="4" points="103.167762 324.001651 98 316 89 312.5"></polyline>
                <path d="M107.084219,319.365422 C102.393586,311.367899 105.623931,314.129083 97.8263235,310.600444" id="Path-14" stroke="#000000" stroke-width="4"></path>
                <path d="M60.5,398 C60.4430286,394.641366 59.5569714,389.858634 59.5,386.5 L60.5,398 Z" id="Path-21" stroke="#000000" stroke-width="4"></path>
            </g>
        </g>
    </g>
</svg>