<?xml version="1.0" encoding="UTF-8"?>
<svg width="1440px" height="1847px" viewBox="0 0 1440 1847" version="1.1" xmlns="http://www.w3.org/2000/svg" xmlns:xlink="http://www.w3.org/1999/xlink" style="background: #FDFDFD;">
    <!-- Generator: Sketch 46.1 (44463) - http://www.bohemiancoding.com/sketch -->
    <title>Desktop HD</title>
    <desc>Created with Sketch.</desc>
    <defs></defs>
    <g id="Background-Art" stroke="none" stroke-width="1" fill="none" fill-rule="evenodd">
        <g id="Desktop-HD">
            <path d="M267.701673,588.339335 C278.085566,558.439754 288.025843,543.489964 297.522502,543.489964 C311.720178,543.489964 308.786361,588.339335 324.587004,588.339335 C340.58912,588.339335 346.12496,543.489964 361.12802,543.489964 C375.877344,543.489964 369.837708,588.339335 384.091773,588.339335 C389.086174,588.339335 396.243986,585.747803 405.565209,580.564739 L405.565209,580.56474 C409.426669,578.417576 410.816381,573.546624 408.669217,569.685165 C407.019468,566.718256 403.676857,565.115614 400.330578,565.687138" id="Scribble" stroke="#D7D3D3" stroke-width="16" transform="translate(338.690277, 565.914649) rotate(-30.000000) translate(-338.690277, -565.914649) "></path>
            <path d="M482.132519,420.733301 L504.574564,406.46855 L504.574564,406.46855 C505.972855,405.57976 507.826901,405.992792 508.715691,407.391083 C509.192849,408.141772 509.312275,409.0655 509.041724,409.912859 L501.507242,433.510689 L431.252558,525.896431 L411,509.411487 L482.132519,420.733301 Z" id="Pen" fill="#D7D3D3" transform="translate(460.091937, 465.948215) scale(-1, -1) translate(-460.091937, -465.948215) "></path>
            <path d="M119.765304,1705.33934 C130.149197,1675.43975 140.089473,1660.48996 149.586133,1660.48996 C163.783809,1660.48996 160.849991,1705.33934 176.650635,1705.33934 C192.65275,1705.33934 198.18859,1660.48996 213.191651,1660.48996 C227.940975,1660.48996 221.901338,1705.33934 236.155404,1705.33934 C241.149805,1705.33934 248.307617,1702.7478 257.62884,1697.56474 L257.62884,1697.56474 C261.4903,1695.41758 262.880011,1690.54662 260.732847,1686.68516 C259.083098,1683.71826 255.740488,1682.11561 252.394209,1682.68714" id="Scribble" stroke="#D7D3D3" stroke-width="16" transform="translate(190.753908, 1682.914649) rotate(-30.000000) translate(-190.753908, -1682.914649) "></path>
            <path d="M334.19615,1537.7333 L356.638194,1523.46855 L356.638194,1523.46855 C358.036485,1522.57976 359.890531,1522.99279 360.779322,1524.39108 C361.256479,1525.14177 361.375906,1526.0655 361.105355,1526.91286 L353.570872,1550.51069 L283.316188,1642.89643 L263.063631,1626.41149 L334.19615,1537.7333 Z" id="Pen" fill="#D7D3D3" transform="translate(312.155567, 1582.948215) scale(-1, -1) translate(-312.155567, -1582.948215) "></path>
            <path d="M946.304642,326.339335 C956.688535,296.439754 966.628811,281.489964 976.125471,281.489964 C990.323147,281.489964 987.389329,326.339335 1003.18997,326.339335 C1019.19209,326.339335 1024.72793,281.489964 1039.73099,281.489964 C1054.48031,281.489964 1048.44068,326.339335 1062.69474,326.339335 C1067.68914,326.339335 1074.84695,323.747803 1084.16818,318.564739 L1084.16818,318.56474 C1088.02964,316.417576 1089.41935,311.546624 1087.27219,307.685165 C1085.62244,304.718256 1082.27983,303.115614 1078.93355,303.687138" id="Scribble" stroke="#D7D3D3" stroke-width="16" transform="translate(1017.293246, 303.914649) rotate(-30.000000) translate(-1017.293246, -303.914649) "></path>
            <path d="M1160.73549,158.733301 L1183.17753,144.46855 L1183.17753,144.46855 C1184.57582,143.57976 1186.42987,143.992792 1187.31866,145.391083 C1187.79582,146.141772 1187.91524,147.0655 1187.64469,147.912859 L1180.11021,171.510689 L1109.85553,263.896431 L1089.60297,247.411487 L1160.73549,158.733301 Z" id="Pen" fill="#D7D3D3" transform="translate(1138.694905, 203.948215) scale(-1, -1) translate(-1138.694905, -203.948215) "></path>
            <path d="M1059,803.339335 C1069.38389,773.439754 1079.32417,758.489964 1088.82083,758.489964 C1103.01851,758.489964 1100.08469,803.339335 1115.88533,803.339335 C1131.88745,803.339335 1137.42329,758.489964 1152.42635,758.489964 C1167.17567,758.489964 1161.13603,803.339335 1175.3901,803.339335 C1180.3845,803.339335 1187.54231,800.747803 1196.86354,795.564739 L1196.86354,795.56474 C1200.725,793.417576 1202.11471,788.546624 1199.96754,784.685165 C1198.31779,781.718256 1194.97518,780.115614 1191.6289,780.687138" id="Scribble" stroke="#D7D3D3" stroke-width="16" transform="translate(1129.988604, 780.914649) rotate(-30.000000) translate(-1129.988604, -780.914649) "></path>
            <path d="M1273.43085,635.733301 L1295.87289,621.46855 L1295.87289,621.46855 C1297.27118,620.57976 1299.12523,620.992792 1300.01402,622.391083 C1300.49118,623.141772 1300.6106,624.0655 1300.34005,624.912859 L1292.80557,648.510689 L1222.55088,740.896431 L1202.29833,724.411487 L1273.43085,635.733301 Z" id="Pen" fill="#D7D3D3" transform="translate(1251.390263, 680.948215) scale(-1, -1) translate(-1251.390263, -680.948215) "></path>
            <path d="M1009.2475,1389.33934 C1019.6314,1359.43975 1029.57167,1344.48996 1039.06833,1344.48996 C1053.26601,1344.48996 1050.33219,1389.33934 1066.13283,1389.33934 C1082.13495,1389.33934 1087.67079,1344.48996 1102.67385,1344.48996 C1117.42317,1344.48996 1111.38354,1389.33934 1125.6376,1389.33934 C1130.632,1389.33934 1137.78982,1386.7478 1147.11104,1381.56474 L1147.11104,1381.56474 C1150.9725,1379.41758 1152.36221,1374.54662 1150.21505,1370.68516 C1148.5653,1367.71826 1145.22269,1366.11561 1141.87641,1366.68714" id="Scribble" stroke="#D7D3D3" stroke-width="16" transform="translate(1080.236107, 1366.914649) rotate(-30.000000) translate(-1080.236107, -1366.914649) "></path>
            <path d="M1223.67835,1221.7333 L1246.12039,1207.46855 L1246.12039,1207.46855 C1247.51869,1206.57976 1249.37273,1206.99279 1250.26152,1208.39108 C1250.73868,1209.14177 1250.85811,1210.0655 1250.58755,1210.91286 L1243.05307,1234.51069 L1172.79839,1326.89643 L1152.54583,1310.41149 L1223.67835,1221.7333 Z" id="Pen" fill="#D7D3D3" transform="translate(1201.637767, 1266.948215) scale(-1, -1) translate(-1201.637767, -1266.948215) "></path>
            <g id="Computer" transform="translate(172.486515, 433.741324) rotate(-30.000000) translate(-172.486515, -433.741324) translate(73.486515, 342.241324)">
                <rect id="Rectangle" stroke="#D8D8D8" stroke-width="22" x="11" y="11" width="175.644203" height="122.943171" rx="10"></rect>
                <path d="M82.1419698,150.073903 C82.1419698,166.982395 75.8771469,177.67142 63.347501,182.140976 L135.563652,182.140976 C122.332422,177.67142 115.39505,166.982395 114.751538,150.073903 L82.1419698,150.073903 Z" id="Path-2" fill="#D8D8D8"></path>
            </g>
            <g id="Computer" transform="translate(879.486515, 871.741324) rotate(-30.000000) translate(-879.486515, -871.741324) translate(780.486515, 780.241324)">
                <rect id="Rectangle" stroke="#D8D8D8" stroke-width="22" x="11" y="11" width="175.644203" height="122.943171" rx="10"></rect>
                <path d="M82.1419698,150.073903 C82.1419698,166.982395 75.8771469,177.67142 63.347501,182.140976 L135.563652,182.140976 C122.332422,177.67142 115.39505,166.982395 114.751538,150.073903 L82.1419698,150.073903 Z" id="Path-2" fill="#D8D8D8"></path>
            </g>
            <g id="Computer" transform="translate(190.486515, 1237.741324) rotate(-30.000000) translate(-190.486515, -1237.741324) translate(91.486515, 1146.241324)">
                <rect id="Rectangle" stroke="#D8D8D8" stroke-width="22" x="11" y="11" width="175.644203" height="122.943171" rx="10"></rect>
                <path d="M82.1419698,150.073903 C82.1419698,166.982395 75.8771469,177.67142 63.347501,182.140976 L135.563652,182.140976 C122.332422,177.67142 115.39505,166.982395 114.751538,150.073903 L82.1419698,150.073903 Z" id="Path-2" fill="#D8D8D8"></path>
            </g>
            <g id="Computer" transform="translate(591.486515, 1381.741324) rotate(-30.000000) translate(-591.486515, -1381.741324) translate(492.486515, 1290.241324)">
                <rect id="Rectangle" stroke="#D8D8D8" stroke-width="22" x="11" y="11" width="175.644203" height="122.943171" rx="10"></rect>
                <path d="M82.1419698,150.073903 C82.1419698,166.982395 75.8771469,177.67142 63.347501,182.140976 L135.563652,182.140976 C122.332422,177.67142 115.39505,166.982395 114.751538,150.073903 L82.1419698,150.073903 Z" id="Path-2" fill="#D8D8D8"></path>
            </g>
            <g id="Computer" transform="translate(1206.486515, 487.741324) rotate(-30.000000) translate(-1206.486515, -487.741324) translate(1107.486515, 396.241324)">
                <rect id="Rectangle" stroke="#D8D8D8" stroke-width="22" x="11" y="11" width="175.644203" height="122.943171" rx="10"></rect>
                <path d="M82.1419698,150.073903 C82.1419698,166.982395 75.8771469,177.67142 63.347501,182.140976 L135.563652,182.140976 C122.332422,177.67142 115.39505,166.982395 114.751538,150.073903 L82.1419698,150.073903 Z" id="Path-2" fill="#D8D8D8"></path>
            </g>
            <g id="Mouse" transform="translate(319.127876, 201.429147) rotate(-30.000000) translate(-319.127876, -201.429147) translate(284.627876, 116.929147)">
                <rect id="Rectangle-2" fill="#D8D8D8" x="12" y="61" width="57" height="107" rx="28.5"></rect>
                <path d="M41.0690728,60.9289719 C40.5910056,47.0301635 39.3195297,38.2854661 37.254645,34.6948796 C35.8817055,32.3075028 29.6354128,28.0946867 24.2188283,31.2062762 C17.4156945,35.1143772 13.0354904,43.4126422 8.59557903,40.0278699 C0.82412913,34.1032947 -3.26543248,17.3625603 6.33011051,0.234797281" id="Path-4" stroke="#D8D8D8" stroke-width="5"></path>
            </g>
            <g id="Mouse" transform="translate(532.127876, 833.429147) rotate(-30.000000) translate(-532.127876, -833.429147) translate(497.627876, 748.929147)">
                <rect id="Rectangle-2" fill="#D8D8D8" x="12" y="61" width="57" height="107" rx="28.5"></rect>
                <path d="M41.0690728,60.9289719 C40.5910056,47.0301635 39.3195297,38.2854661 37.254645,34.6948796 C35.8817055,32.3075028 29.6354128,28.0946867 24.2188283,31.2062762 C17.4156945,35.1143772 13.0354904,43.4126422 8.59557903,40.0278699 C0.82412913,34.1032947 -3.26543248,17.3625603 6.33011051,0.234797281" id="Path-4" stroke="#D8D8D8" stroke-width="5"></path>
            </g>
            <g id="Mouse" transform="translate(1323.127876, 1014.429147) rotate(-30.000000) translate(-1323.127876, -1014.429147) translate(1288.627876, 929.929147)">
                <rect id="Rectangle-2" fill="#D8D8D8" x="12" y="61" width="57" height="107" rx="28.5"></rect>
                <path d="M41.0690728,60.9289719 C40.5910056,47.0301635 39.3195297,38.2854661 37.254645,34.6948796 C35.8817055,32.3075028 29.6354128,28.0946867 24.2188283,31.2062762 C17.4156945,35.1143772 13.0354904,43.4126422 8.59557903,40.0278699 C0.82412913,34.1032947 -3.26543248,17.3625603 6.33011051,0.234797281" id="Path-4" stroke="#D8D8D8" stroke-width="5"></path>
            </g>
            <g id="Mouse" transform="translate(820.127876, 1678.429147) rotate(-30.000000) translate(-820.127876, -1678.429147) translate(785.627876, 1593.929147)">
                <rect id="Rectangle-2" fill="#D8D8D8" x="12" y="61" width="57" height="107" rx="28.5"></rect>
                <path d="M41.0690728,60.9289719 C40.5910056,47.0301635 39.3195297,38.2854661 37.254645,34.6948796 C35.8817055,32.3075028 29.6354128,28.0946867 24.2188283,31.2062762 C17.4156945,35.1143772 13.0354904,43.4126422 8.59557903,40.0278699 C0.82412913,34.1032947 -3.26543248,17.3625603 6.33011051,0.234797281" id="Path-4" stroke="#D8D8D8" stroke-width="5"></path>
            </g>
            <g id="Mouse" transform="translate(676.127876, 587.429147) rotate(-30.000000) translate(-676.127876, -587.429147) translate(641.627876, 502.929147)">
                <rect id="Rectangle-2" fill="#D8D8D8" x="12" y="61" width="57" height="107" rx="28.5"></rect>
                <path d="M41.0690728,60.9289719 C40.5910056,47.0301635 39.3195297,38.2854661 37.254645,34.6948796 C35.8817055,32.3075028 29.6354128,28.0946867 24.2188283,31.2062762 C17.4156945,35.1143772 13.0354904,43.4126422 8.59557903,40.0278699 C0.82412913,34.1032947 -3.26543248,17.3625603 6.33011051,0.234797281" id="Path-4" stroke="#D8D8D8" stroke-width="5"></path>
            </g>
            <g id="Sheet-of-Paper" transform="translate(206.786842, 800.852540) rotate(-30.000000) translate(-206.786842, -800.852540) translate(134.286842, 700.852540)" stroke="#D8D8D8">
                <rect id="Rectangle-3" stroke-width="15" x="7.5" y="7.5" width="130" height="185" rx="20"></rect>
                <g id="Paper-Scribbles" transform="translate(24.000000, 41.000000)" stroke-width="6">
                    <path d="M1,5.66066345 C6.21068827,-1.64564285 5.00841546,4.59626537 11.4369824,7 C16.3566243,5.80932372 18.0163521,0.326411561 19.8019601,0 C26.1584348,2.30292772 24.2626024,5.66066345 30.977041,7 C36.6563916,7 34.5352181,3.5 40.3578214,0 C44.8787055,0 47.1059838,7 53.0845341,7 C59.0743484,7 58.3084271,0 64.812229,0 C71.3237117,0 72.5406615,7 78.2111417,7 C83.8498927,7 82.734671,0 87.6796929,0 C90.9792978,0 94.4194001,2.33333333 98,7" id="Path-3"></path>
                    <path d="M1,33.6606635 C6.21068827,26.3543571 5.00841546,32.5962654 11.4369824,35 C16.3566243,33.8093237 18.0163521,28.3264116 19.8019601,28 C26.1584348,30.3029277 24.2626024,33.6606635 30.977041,35 C36.6563916,35 34.5352181,31.5 40.3578214,28 C44.8787055,28 47.1059838,35 53.0845341,35 C59.0743484,35 58.3084271,28 64.812229,28 C71.3237117,28 72.5406615,35 78.2111417,35 C83.8498927,35 82.734671,28 87.6796929,28 C90.9792978,28 94.4194001,30.3333333 98,35" id="Path-3"></path>
                    <path d="M1,61.6606635 C6.21068827,54.3543571 5.00841546,60.5962654 11.4369824,63 C16.3566243,61.8093237 18.0163521,56.3264116 19.8019601,56 C26.1584348,58.3029277 24.2626024,61.6606635 30.977041,63 C36.6563916,63 34.5352181,59.5 40.3578214,56 C44.8787055,56 47.1059838,63 53.0845341,63 C59.0743484,63 58.3084271,56 64.812229,56 C71.3237117,56 72.5406615,63 78.2111417,63 C83.8498927,63 82.734671,56 87.6796929,56 C90.9792978,56 94.4194001,58.3333333 98,63" id="Path-3"></path>
                    <path d="M0,89.6606635 C5.21068827,82.3543571 4.00841546,88.5962654 10.4369824,91 C15.3566243,89.8093237 17.0163521,84.3264116 18.8019601,84 C25.1584348,86.3029277 23.2626024,89.6606635 29.977041,91 C35.6563916,91 33.5352181,87.5 39.3578214,84 C43.8787055,84 46.1059838,91 52.0845341,91 C58.0743484,91 57.3084271,84 63.812229,84 C70.3237117,84 71.5406615,91 77.2111417,91 C82.8498927,91 81.734671,84 86.6796929,84 C89.9792978,84 93.4194001,86.3333333 97,91" id="Path-3"></path>
                    <path d="M1,117.660663 C6.21068827,110.354357 5.00841546,116.596265 11.4369824,119 C16.3566243,117.809324 18.0163521,112.326412 19.8019601,112 C26.1584348,114.302928 24.2626024,117.660663 30.977041,119 C36.6563916,119 34.5352181,115.5 40.3578214,112 C44.8787055,112 47.1059838,119 53.0845341,119 C59.0743484,119 58.3084271,112 64.812229,112 C71.3237117,112 72.5406615,119 78.2111417,119 C83.8498927,119 82.734671,112 87.6796929,112 C90.9792978,112 94.4194001,114.333333 98,119" id="Path-3"></path>
                </g>
            </g>
            <g id="Sheet-of-Paper" transform="translate(1204.786842, 1657.852540) rotate(-30.000000) translate(-1204.786842, -1657.852540) translate(1132.286842, 1557.852540)" stroke="#D8D8D8">
                <rect id="Rectangle-3" stroke-width="15" x="7.5" y="7.5" width="130" height="185" rx="20"></rect>
                <g id="Paper-Scribbles" transform="translate(24.000000, 41.000000)" stroke-width="6">
                    <path d="M1,5.66066345 C6.21068827,-1.64564285 5.00841546,4.59626537 11.4369824,7 C16.3566243,5.80932372 18.0163521,0.326411561 19.8019601,0 C26.1584348,2.30292772 24.2626024,5.66066345 30.977041,7 C36.6563916,7 34.5352181,3.5 40.3578214,0 C44.8787055,0 47.1059838,7 53.0845341,7 C59.0743484,7 58.3084271,0 64.812229,0 C71.3237117,0 72.5406615,7 78.2111417,7 C83.8498927,7 82.734671,0 87.6796929,0 C90.9792978,0 94.4194001,2.33333333 98,7" id="Path-3"></path>
                    <path d="M1,33.6606635 C6.21068827,26.3543571 5.00841546,32.5962654 11.4369824,35 C16.3566243,33.8093237 18.0163521,28.3264116 19.8019601,28 C26.1584348,30.3029277 24.2626024,33.6606635 30.977041,35 C36.6563916,35 34.5352181,31.5 40.3578214,28 C44.8787055,28 47.1059838,35 53.0845341,35 C59.0743484,35 58.3084271,28 64.812229,28 C71.3237117,28 72.5406615,35 78.2111417,35 C83.8498927,35 82.734671,28 87.6796929,28 C90.9792978,28 94.4194001,30.3333333 98,35" id="Path-3"></path>
                    <path d="M1,61.6606635 C6.21068827,54.3543571 5.00841546,60.5962654 11.4369824,63 C16.3566243,61.8093237 18.0163521,56.3264116 19.8019601,56 C26.1584348,58.3029277 24.2626024,61.6606635 30.977041,63 C36.6563916,63 34.5352181,59.5 40.3578214,56 C44.8787055,56 47.1059838,63 53.0845341,63 C59.0743484,63 58.3084271,56 64.812229,56 C71.3237117,56 72.5406615,63 78.2111417,63 C83.8498927,63 82.734671,56 87.6796929,56 C90.9792978,56 94.4194001,58.3333333 98,63" id="Path-3"></path>
                    <path d="M0,89.6606635 C5.21068827,82.3543571 4.00841546,88.5962654 10.4369824,91 C15.3566243,89.8093237 17.0163521,84.3264116 18.8019601,84 C25.1584348,86.3029277 23.2626024,89.6606635 29.977041,91 C35.6563916,91 33.5352181,87.5 39.3578214,84 C43.8787055,84 46.1059838,91 52.0845341,91 C58.0743484,91 57.3084271,84 63.812229,84 C70.3237117,84 71.5406615,91 77.2111417,91 C82.8498927,91 81.734671,84 86.6796929,84 C89.9792978,84 93.4194001,86.3333333 97,91" id="Path-3"></path>
                    <path d="M1,117.660663 C6.21068827,110.354357 5.00841546,116.596265 11.4369824,119 C16.3566243,117.809324 18.0163521,112.326412 19.8019601,112 C26.1584348,114.302928 24.2626024,117.660663 30.977041,119 C36.6563916,119 34.5352181,115.5 40.3578214,112 C44.8787055,112 47.1059838,119 53.0845341,119 C59.0743484,119 58.3084271,112 64.812229,112 C71.3237117,112 72.5406615,119 78.2111417,119 C83.8498927,119 82.734671,112 87.6796929,112 C90.9792978,112 94.4194001,114.333333 98,119" id="Path-3"></path>
                </g>
            </g>
            <g id="Sheet-of-Paper" transform="translate(831.786842, 1188.852540) rotate(-30.000000) translate(-831.786842, -1188.852540) translate(759.286842, 1088.852540)" stroke="#D8D8D8">
                <rect id="Rectangle-3" stroke-width="15" x="7.5" y="7.5" width="130" height="185" rx="20"></rect>
                <g id="Paper-Scribbles" transform="translate(24.000000, 41.000000)" stroke-width="6">
                    <path d="M1,5.66066345 C6.21068827,-1.64564285 5.00841546,4.59626537 11.4369824,7 C16.3566243,5.80932372 18.0163521,0.326411561 19.8019601,0 C26.1584348,2.30292772 24.2626024,5.66066345 30.977041,7 C36.6563916,7 34.5352181,3.5 40.3578214,0 C44.8787055,0 47.1059838,7 53.0845341,7 C59.0743484,7 58.3084271,0 64.812229,0 C71.3237117,0 72.5406615,7 78.2111417,7 C83.8498927,7 82.734671,0 87.6796929,0 C90.9792978,0 94.4194001,2.33333333 98,7" id="Path-3"></path>
                    <path d="M1,33.6606635 C6.21068827,26.3543571 5.00841546,32.5962654 11.4369824,35 C16.3566243,33.8093237 18.0163521,28.3264116 19.8019601,28 C26.1584348,30.3029277 24.2626024,33.6606635 30.977041,35 C36.6563916,35 34.5352181,31.5 40.3578214,28 C44.8787055,28 47.1059838,35 53.0845341,35 C59.0743484,35 58.3084271,28 64.812229,28 C71.3237117,28 72.5406615,35 78.2111417,35 C83.8498927,35 82.734671,28 87.6796929,28 C90.9792978,28 94.4194001,30.3333333 98,35" id="Path-3"></path>
                    <path d="M1,61.6606635 C6.21068827,54.3543571 5.00841546,60.5962654 11.4369824,63 C16.3566243,61.8093237 18.0163521,56.3264116 19.8019601,56 C26.1584348,58.3029277 24.2626024,61.6606635 30.977041,63 C36.6563916,63 34.5352181,59.5 40.3578214,56 C44.8787055,56 47.1059838,63 53.0845341,63 C59.0743484,63 58.3084271,56 64.812229,56 C71.3237117,56 72.5406615,63 78.2111417,63 C83.8498927,63 82.734671,56 87.6796929,56 C90.9792978,56 94.4194001,58.3333333 98,63" id="Path-3"></path>
                    <path d="M0,89.6606635 C5.21068827,82.3543571 4.00841546,88.5962654 10.4369824,91 C15.3566243,89.8093237 17.0163521,84.3264116 18.8019601,84 C25.1584348,86.3029277 23.2626024,89.6606635 29.977041,91 C35.6563916,91 33.5352181,87.5 39.3578214,84 C43.8787055,84 46.1059838,91 52.0845341,91 C58.0743484,91 57.3084271,84 63.812229,84 C70.3237117,84 71.5406615,91 77.2111417,91 C82.8498927,91 81.734671,84 86.6796929,84 C89.9792978,84 93.4194001,86.3333333 97,91" id="Path-3"></path>
                    <path d="M1,117.660663 C6.21068827,110.354357 5.00841546,116.596265 11.4369824,119 C16.3566243,117.809324 18.0163521,112.326412 19.8019601,112 C26.1584348,114.302928 24.2626024,117.660663 30.977041,119 C36.6563916,119 34.5352181,115.5 40.3578214,112 C44.8787055,112 47.1059838,119 53.0845341,119 C59.0743484,119 58.3084271,112 64.812229,112 C71.3237117,112 72.5406615,119 78.2111417,119 C83.8498927,119 82.734671,112 87.6796929,112 C90.9792978,112 94.4194001,114.333333 98,119" id="Path-3"></path>
                </g>
            </g>
            <path d="M532.127876,201.339335 C542.511769,171.439754 552.452046,156.489964 561.948705,156.489964 C576.146382,156.489964 573.212564,201.339335 589.013207,201.339335 C605.015323,201.339335 610.551163,156.489964 625.554223,156.489964 C640.303547,156.489964 634.263911,201.339335 648.517976,201.339335 C653.512377,201.339335 660.670189,198.747803 669.991412,193.564739 L669.991413,193.56474 C673.852872,191.417576 675.242584,186.546624 673.09542,182.685165 C671.445671,179.718256 668.10306,178.115614 664.756781,178.687138" id="Scribble" stroke="#D7D3D3" stroke-width="16" transform="translate(603.116480, 178.914649) rotate(-30.000000) translate(-603.116480, -178.914649) "></path>
            <path d="M746.558722,33.733301 L769.000767,19.4685501 L769.000767,19.4685501 C770.399058,18.5797598 772.253104,18.9927917 773.141894,20.3910827 C773.619052,21.1417721 773.738478,22.0655002 773.467928,22.9128588 L765.933445,46.5106886 L695.678761,138.896431 L675.426203,122.411487 L746.558722,33.733301 Z" id="Pen" fill="#D7D3D3" transform="translate(724.518140, 78.948215) scale(-1, -1) translate(-724.518140, -78.948215) "></path>
            <g id="Group" transform="translate(67.000000, 89.000000)" fill="#D8D8D8">
                <circle id="Oval" cx="524.5" cy="243.5" r="27.5"></circle>
                <circle id="Oval" cx="463.5" cy="554.5" r="27.5"></circle>
                <circle id="Oval" cx="321.5" cy="911.5" r="27.5"></circle>
                <circle id="Oval" cx="27.5" cy="952.5" r="27.5"></circle>
                <circle id="Oval" cx="78.5" cy="1393.5" r="27.5"></circle>
                <circle id="Oval" cx="376.5" cy="1145.5" r="27.5"></circle>
                <circle id="Oval" cx="839.5" cy="1421.5" r="27.5"></circle>
                <circle id="Oval" cx="465.5" cy="1621.5" r="27.5"></circle>
                <circle id="Oval" cx="624.5" cy="977.5" r="27.5"></circle>
                <circle id="Oval" cx="852.5" cy="470.5" r="27.5"></circle>
                <circle id="Oval" cx="780.5" cy="202.5" r="27.5"></circle>
                <circle id="Oval" cx="894.5" cy="27.5" r="27.5"></circle>
                <circle id="Oval" cx="1283.5" cy="147.5" r="27.5"></circle>
                <circle id="Oval" cx="997.5" cy="1032.5" r="27.5"></circle>
                <circle id="Oval" cx="1270.5" cy="1360.5" r="27.5"></circle>
            </g>
            <rect id="Rectangle-4" fill="#FFFFFF" opacity="0.097826087" x="0" y="0" width="1440" height="1847"></rect>
        </g>
    </g>
</svg>